<svg xmlns="http://www.w3.org/2000/svg" data-name="Генерал 3" viewBox="0 0 132.12 152.72"><path d="M65.73.58.5 38.12v76.46l65.23 37.57 65.89-37.57V38.12L65.73.58ZM122.7 108.7l-56.97 32.9-56.31-32.22V43.49l56.31-32.63 56.97 32.63v65.21Z" style="fill:#fff;stroke:#fff;stroke-miterlimit:10"/><path d="M51.78 126.37h27.96l-13.98 8.5-13.98-8.5ZM31.87 112.96l68.98-.61-13.38 8.36-42.28.76-13.33-8.51ZM65.89 50.33l7.88 15.82 19.21 3.84L78.87 82.7l4.51 19.41-17.48-12.1-16.52 12.1 5.21-19.32-14.82-12.8 19.29-3.84 6.84-15.82Z" style="fill:#fff;stroke:#fff;stroke-miterlimit:10"/></svg>