<?xml version="1.0" encoding="UTF-8" standalone="no"?>
<svg width="32pt" height="32pt" version="1.1" viewBox="0 0 32 32" xmlns="http://www.w3.org/2000/svg">
 <g fill="none">
  <g stroke-width=".0020228">
   <path d="m17.198 2.8982v-0.037061h-0.10731v-0.037066l-0.07154-0.037062h-0.21461l-0.1073-0.037063h-0.85845l-0.32192 0.037061h-0.71537l-0.32192 0.037062h-3.1119l-0.25038-0.03706h-0.25038l-0.25038-0.037063h-1.4665l-0.25038 0.037062h-0.25038l-0.17884 0.037062-0.25038 0.037066-0.25038 0.037062-0.50076 0.14825-0.25038 0.037062-0.17884 0.074127-0.17884 0.074124-0.21462 0.074127-0.14307 0.074127-0.17884 0.037062-0.21461 0.11119-0.21461 0.037062-0.14307 0.11119-0.25038 0.074124-0.10731 0.074127-0.17884 0.074127-0.17884 0.11119-0.14307 0.11119-0.14307 0.074124-0.10731 0.074128-0.14308 0.11119-0.071539 0.11119-0.071536 0.074127-0.10731 0.037064-0.035769 0.074127-0.071536 0.074127-0.071539 0.074124h-0.035769l-0.071539 0.037064-0.03577 0.037063-0.035769 0.074127-0.03577 0.037064h-0.035769l-0.03577 0.037064h-0.03577v0.074124h-0.035771l-0.035767 0.037063-0.035768 0.074124h-0.035769v0.074127l-0.035768 0.037063"/>
   <path d="m21.669 4.1212c-0.12241 0 0.13036-0.00299-0.17884 0.037063-0.18163 0.023536-0.39067 0-0.5723 0-0.23846 0-0.47732 0.012333-0.71538 0-0.1079-0.00557-0.21402-0.031976-0.32192-0.037063-0.1548-0.00729-0.31019 0.00574-0.46499 0-0.5252-0.019439-1.0488-0.093646-1.5738-0.11119-0.20259-0.00677-0.40548 0.00656-0.60807 0-0.17916-0.0058-0.35741-0.030435-0.53653-0.037064-0.1549-0.00572-0.31008 0.00502-0.46499 0-0.22673-0.00735-0.45285-0.030535-0.67961-0.037063-0.80933-0.023291-1.6226 0-2.4323 0-0.53389 0-1.076-0.020468-1.6096 0-0.13161 0.00504-0.26187 0.031816-0.39345 0.037063-0.1787 0.00712-0.35781-0.00661-0.53653 0-0.52608 0.019481-1.0508 0.091219-1.5738 0.14825-0.13097 0.01429-0.26338 0.015772-0.39346 0.037063-0.097113 0.015894-0.18974 0.054153-0.28615 0.074127-0.082667 0.01713-0.16795 0.018757-0.25038 0.037064-0.084872 0.018841-0.1665 0.050962-0.25038 0.074127-0.095004 0.026253-0.19218 0.044167-0.28615 0.074127-0.061361 0.019558-0.11734 0.055017-0.17884 0.074123-0.058222 0.018099-0.12062 0.018964-0.17884 0.037064-0.16529 0.051373-0.30874 0.15041-0.46499 0.22238-0.15643 0.072047-0.31564 0.13394-0.46499 0.22238-0.083463 0.049418-0.16692 0.098837-0.25038 0.14825-0.037319 0.022094-0.067802 0.056585-0.10731 0.074127-0.045186 0.020075-0.10039 0.011797-0.14307 0.037064-0.043919 0.026007-0.06522 0.082116-0.10731 0.11119-0.031378 0.021683-0.072651 0.021683-0.10731 0.037063-0.12092 0.053703-0.2559 0.13448-0.35769 0.22238-0.077716 0.067104-0.1369 0.15527-0.21461 0.22238-0.15347 0.13252-0.072116 0.00813-0.21461 0.18532-0.02752 0.034221-0.044692 0.076411-0.071538 0.11119-0.0621 0.080427-0.15559 0.1779-0.21461 0.25944-0.015999 0.022093-0.020985 0.051127-0.03577 0.074127-0.028057 0.043612-0.071536 0.074127-0.10731 0.11119"/>
   <path d="m14.643 2.7528c-0.24838 0-0.50408 0.019691-0.75114 0-0.14461-0.011528-0.28454-0.063418-0.42922-0.074127-0.22596-0.016724-0.45335 0.011722-0.67961 0-0.11966-0.0062-0.238-0.030861-0.35769-0.037062-0.11907-0.00617-0.23856 0.00514-0.35769 0-0.1672-0.00722-0.3335-0.031088-0.50076-0.037066-0.17872-0.00638-0.35779 0.00617-0.53653 0-0.17914-0.00618-0.35737-0.031262-0.53653-0.037062-0.20259-0.00656-0.40538 0-0.60807 0h-1.6454c-0.42922 0-0.85865-0.01347-1.2877 0-0.3583 0.011254-0.71537 0.04942-1.0731 0.074128-0.45398 0.031359-0.57934 0.034652-1.0373 0.11119-0.52717 0.088107-0.5483 0.10978-1.0373 0.22238-0.16664 0.038373-0.33688 0.061663-0.50076 0.11119-0.33684 0.1018-0.80975 0.34498-1.0731 0.59301-0.056493 0.053211-0.092004 0.12652-0.14308 0.18532-0.056398 0.064932-0.12826 0.11543-0.17884 0.18531-0.090669 0.12527-0.17671 0.34186-0.25038 0.48182-0.033291 0.063243-0.078538 0.11974-0.10731 0.18532-1.9374 4.4165 2.1704-4.7924-0.17884 0.48182-0.033516 0.075238-0.074209 0.14693-0.10731 0.22238-0.13033 0.2971-0.015074 0.076102-0.14307 0.4077-0.048951 0.1268-0.10654 0.23811-0.14308 0.37063-0.013504 0.048965-0.027686 0.098012-0.035768 0.14825-0.007841 0.048738 0.011567 0.1003 0 0.14825-0.041101 0.17035-0.035769 0.00839-0.035769 0.11119"/>
  </g>
  <g stroke="#000" stroke-linecap="square" stroke-linejoin="bevel">
   <path d="m25.591 12.957c0-5.8234-5.7119-8.6719-12.614-8.6719-6.9022 0-12.381 2.8485-12.381 8.6719 0 5.8233 5.5953 10.544 12.497 10.544 6.9022 0 12.498-4.7208 12.498-10.544z" stroke-width="1.1913"/>
   <ellipse cx="18.575" cy="11.465" rx="3.6484" ry="3.5898" stroke-width="1.1609"/>
   <ellipse cx="6.6633" cy="11.464" rx="3.6484" ry="3.5898" stroke-width="1.1609"/>
  </g>
 </g>
 <ellipse cx="6.1674" cy="10.965" rx="1.5045" ry="1.4804" fill-rule="evenodd" stroke="#000" stroke-linecap="square" stroke-linejoin="bevel" stroke-width="1.1609"/>
 <path d="m4.18 18.84c0.17821 0.30804 0.53868 0.69226 0.97203 1.1741 0.28428 0.31607 0.70435 0.60454 1.0109 0.83845 1.1429 0.87222 2.1903 1.1164 3.7647 1.4607 1.1112 0.24297 2.3422 0.31257 3.6126 0.21106 2.0799-0.16637 4.0909-0.70626 5.7655-1.729 0.78055-0.47667 1.209-0.8191 1.8798-1.5058 0.45446-0.62513 0.8199-1.2832 1.0554-2.0355l-18.267 0.0022c0.10061 0.38342 0.18556 0.12904-0.06929 0.87101" fill="none" stroke="#000" stroke-linecap="square" stroke-linejoin="bevel" stroke-width="1.1913"/>
 <g>
  <g fill-rule="evenodd" stroke="#000" stroke-linecap="square" stroke-linejoin="bevel">
   <g stroke-width="1.1913">
    <path d="m3.2299 9.4585-1.2161-0.82707c0.90614-1.138 2.003-1.9943 3.2907-2.5692 1.9315-0.86226 2.933-1.355 4.8645-1.5661 1.9315-0.21116 2.8615-0.19358 2.933-0.07038 0.07154 0.12317 2.6386 12.266 2.6297 12.257-0.0059-0.0058-4.4986 0.21647-7.0918 0.28098l0.99258-3.2643 1.234-2.622-2.5038-3.5194-2.8973 0.29914s-0.74518 0.53379-2.2355 1.6014z"/>
    <path d="m2.0138 9.0009-1.1625 2.2172 0.2325 4.2585c0.60807 1.7715 1.1804 2.927 1.7169 3.4667 0.53653 0.53948 1.3533 1.1321 2.4502 1.7772l-1.395-2.7188 0.12519-1.1877 4.2207-0.0176 0.51865-1.7245-2.2355 0.40473-2.9152-1.2494-1.0373-2.5868 0.51865-1.9709s-0.34576-0.22289-1.0373-0.6687z"/>
    <path d="m4.3477 6.0182c-1.7706-1.9064-2.6409-3.0238-2.6111-3.3523 0.044711-0.49273 1.234-1.9973 1.9494-1.9797 0.47692 0.011735 1.4457 0.9825 2.9062 2.9123l-1.1893 1.8125"/>
    <path d="m7.7991 25.045c2.88 0.2477 5.0288 0.34283 6.4464 0.28538 2.1265-0.08628 2.2711 0.05437 4.2887-0.38216 1.1182-0.57325 0.58919-0.20447 2.2842-0.97662 0.86004-0.62266 1.1072-0.65993 1.7948-1.1842 0.90773-0.7878 1.3785-1.1257 1.7717-1.7302 0.69868-1.0744 0.97132-1.7994 1.7314-1.8978 1.1875-0.15381 1.8739 0.18449 2.9052 1.144 1.3242 1.2324 2.3079 3.3064 2.3417 3.9184 0.05981 1.0888 0.11824 6.1385-0.32728 6.3751-0.44552 0.23659-2.1302 0.49623-2.2801 0.11366-0.14983-0.38258 0.15202-4.7289-2.8148-4.8172-0.51566-0.01524-1.5802 0.53556-3.4004 0.78203-1.894 1.1712-1.7111 4.023-2.2807 4.3148-0.68934 0.35313-2.5473 0.64737-2.9069 0.14722-0.35963-0.50035-0.26972-3.3548-0.92901-3.7963-0.65934-0.44126-3.2066-0.61792-3.8659 0.20611-0.65928 0.82404-0.8391 3.5019-1.7381 3.6194-0.89907 0.11778-2.4874 0.35313-2.4874-0.2648 0-0.61792-0.83912-2.2952-1.1088-3.3841-0.19168-0.7738-0.83285-1.5585-0.45087-2.0459 0.37905-0.38319 0.39689-0.22711 1.0262-0.42684z"/>
   </g>
   <ellipse cx="17.964" cy="11.091" rx="1.4532" ry="1.4298" stroke-width="1.1609"/>
  </g>
  <path d="m13.755 4.8649 0.95696 6.2221 3.1674-3.658 3.0334 0.63414 1.7562 3.0329-0.93736 2.7888-2.2024 1.4847-4.722-1.2465 0.31719 2.7633 7.0657-0.02793-0.15965 1.2683-2.2351 3.1431 2.6875-1.351 2.7407-4.3839 0.37252-4.3839-2.6609-4.246-4.5767-1.8749z" stroke-width=".0015171"/>
  <path d="m20.444 5.9278c1.7706-1.9064 2.6409-3.0238 2.6111-3.3523-0.044711-0.49273-1.234-1.9973-1.9494-1.9797-0.47692 0.011738-1.4457 0.98251-2.9062 2.9123l1.1893 1.8125" fill-rule="evenodd" stroke="#000" stroke-linecap="square" stroke-linejoin="bevel" stroke-width="1.1913"/>
 </g>
</svg>
