<svg xmlns="http://www.w3.org/2000/svg" data-name="Маршал 3" viewBox="0 0 132.12 152.72"><path d="M65.73.58.5 38.12v76.46l65.23 37.57 65.89-37.57V38.12L65.73.58ZM122.7 108.7l-56.97 32.9-56.31-32.22V43.49l56.31-32.63 56.97 32.63v65.21Z" style="fill:#fff;stroke:#fff;stroke-miterlimit:10"/><path d="M51.78 126.37h27.96l-13.98 8.5-13.98-8.5ZM14.4 89.65l14.82 23.71-14.62-7.35-.2-16.36ZM116.55 63.8l-14.4-23.97 14.49 7.61-.09 16.36ZM29.2 39.58 14.8 63.55l-.09-16.36 14.49-7.61ZM102.15 112.44l14.4-23.97.09 16.36-14.49 7.61ZM79.74 27.38H51.78l13.98-8.5 13.98 8.5ZM65.52 31.68l3.96 7.97 9.67 1.93-7.1 6.4 2.27 9.77-8.8-6.09-8.32 6.09 2.62-9.72-7.46-6.44 9.71-1.93 3.44-7.97ZM92.9 44.22l3.96 7.97 9.67 1.93-7.1 6.4 2.27 9.77-8.8-6.09-8.32 6.09 2.62-9.72-7.46-6.44 9.71-1.93 3.44-7.97ZM92.9 74.47l3.96 7.97 9.67 1.93-7.1 6.4 2.27 9.77-8.8-6.09-8.32 6.09 2.62-9.72-7.46-6.44 9.71-1.93 3.44-7.97ZM38.31 45.48l3.96 7.97 9.67 1.93-7.1 6.4 2.27 9.77-8.8-6.09-8.32 6.09 2.62-9.72-7.46-6.44 9.71-1.93 3.44-7.97ZM39.08 74.47l3.96 7.97 9.67 1.93-7.1 6.4 2.27 9.77-8.8-6.09-8.32 6.09 2.62-9.72-7.46-6.44 9.71-1.93 3.44-7.97ZM65.82 94.7l3.96 7.97 9.67 1.93-7.1 6.4 2.27 9.77-8.8-6.09-8.32 6.09 2.62-9.72-7.46-6.44 9.71-1.93 3.44-7.97Z" style="fill:#fff;stroke:#fff;stroke-miterlimit:10"/></svg>