<svg xmlns="http://www.w3.org/2000/svg" data-name="Генерал 7" viewBox="0 0 132.12 152.72"><path d="M65.73.58.5 38.12v76.46l65.23 37.57 65.89-37.57V38.12L65.73.58ZM122.7 108.7l-56.97 32.9-56.31-32.22V43.49l56.31-32.63 56.97 32.63v65.21Z" style="fill:#fff;stroke:#fff;stroke-miterlimit:10"/><path d="m89.41 59.89 5.28 10.61 12.88 2.57-9.46 8.52 3.02 13.02-11.72-8.11-11.08 8.11 3.5-12.95-9.94-8.59 12.93-2.57 4.59-10.61ZM40.49 59.89l5.28 10.61 12.88 2.57-9.46 8.52 3.02 13.02-11.72-8.11-11.08 8.11 3.5-12.95-9.94-8.59L35.9 70.5l4.59-10.61ZM65.74 28.15l5.28 10.61 12.88 2.57-9.46 8.52 3.02 13.02-11.72-8.11-11.08 8.11 3.5-12.95-9.94-8.59 12.93-2.57 4.59-10.61Z" style="fill:#fff;stroke:#fff;stroke-miterlimit:10"/></svg>