<svg xmlns="http://www.w3.org/2000/svg" data-name="Маршал 2" viewBox="0 0 132.12 152.72"><path d="M65.73.58.5 38.12v76.46l65.23 37.57 65.89-37.57V38.12L65.73.58ZM122.7 108.7l-56.97 32.9-56.31-32.22V43.49l56.31-32.63 56.97 32.63v65.21Z" style="fill:#fff;stroke:#fff;stroke-miterlimit:10"/><path d="m65.52 31.68 3.96 7.97 9.67 1.93-7.1 6.4 2.27 9.77-8.8-6.09-8.32 6.09 2.62-9.72-7.46-6.44 9.71-1.93 3.44-7.97ZM92.9 44.71l3.96 7.97 9.67 1.93-7.1 6.4 2.27 9.77-8.8-6.09-8.32 6.09 2.62-9.72-7.46-6.44 9.71-1.93 3.44-7.97ZM92.31 74.96l3.96 7.97 9.67 1.93-7.1 6.4 2.27 9.77-8.8-6.09-8.32 6.09 2.62-9.72-7.46-6.44 9.71-1.93 3.44-7.97ZM38.31 44.71l3.96 7.97 9.67 1.93-7.1 6.4 2.27 9.77-8.8-6.09-8.32 6.09 2.62-9.72-7.46-6.44 9.71-1.93 3.44-7.97ZM38.74 74.61l3.96 7.97 9.67 1.93-7.1 6.4 2.27 9.77-8.8-6.09-8.32 6.09 2.62-9.72-7.46-6.44 9.71-1.93 3.44-7.97ZM65.82 94.37l3.96 7.97 9.67 1.93-7.1 6.4 2.27 9.77-8.8-6.09-8.32 6.09 2.62-9.72-7.46-6.44 9.71-1.93 3.44-7.97Z" style="fill:#fff;stroke:#fff;stroke-miterlimit:10"/></svg>