<svg xmlns="http://www.w3.org/2000/svg" width="200" height="200" viewBox="0 0 200 200" version="1.1"><path d="" stroke="none" fill="#080404" fill-rule="evenodd"/><path d="M 80 1.944 C 75.770 3.235, 62.819 10.056, 56.500 14.321 C 48.325 19.839, 38.232 29.649, 35.739 34.500 C 32.630 40.550, 32.943 48.380, 36.583 55.656 C 39.178 60.842, 39.970 61.617, 43.761 62.682 C 46.104 63.341, 49.449 64.896, 51.194 66.138 C 53.194 67.562, 54.136 67.862, 53.742 66.949 C 47.276 51.937, 46.825 48.904, 49.716 39.865 C 53.487 28.072, 68.610 18.059, 87.033 15.157 L 96.685 13.637 90.223 7.568 C 86.669 4.231, 83.478 1.428, 83.131 1.341 C 82.784 1.253, 81.375 1.525, 80 1.944 M 109.371 7.896 L 103.242 13.723 111.072 14.830 C 127.981 17.221, 143.445 26.024, 148.596 36.190 C 150.084 39.125, 151.444 43.810, 151.733 46.987 C 152.229 52.461, 151.679 54.470, 146.280 66.897 C 145.946 67.666, 147.426 67.103, 149.569 65.647 C 151.711 64.191, 154.485 63, 155.732 63 C 160.848 63, 166.430 53.018, 166.357 44 C 166.299 36.952, 163.430 31.260, 156.654 24.754 C 146.918 15.406, 124.045 1.952, 118.028 2.035 C 116.343 2.058, 113.457 4.012, 109.371 7.896 M 89.500 17.936 C 75.875 20.163, 67.904 23.936, 59.886 31.954 C 53.337 38.503, 51.591 43.076, 52.266 51.907 C 52.501 54.983, 53.885 60.264, 55.343 63.642 C 57.119 67.761, 58.327 73.012, 59.008 79.580 C 60.817 97.023, 62.600 100.262, 74.826 108.316 C 96.693 122.722, 103.755 122.668, 125.604 107.929 C 137.715 99.758, 139.179 97.061, 140.992 79.580 C 141.673 73.012, 142.881 67.761, 144.657 63.642 C 147.742 56.493, 148.647 48.118, 146.999 41.995 C 144.664 33.324, 131.383 23.048, 117.869 19.454 C 111.137 17.664, 96.093 16.859, 89.500 17.936 M 27.004 59.780 C 17.310 79.611, 9.999 111.135, 10.023 133 C 10.034 143.146, 12.050 156.450, 13.849 158.249 C 14.349 158.749, 14.956 151.703, 15.266 141.812 C 15.574 132.014, 16.535 120.810, 17.482 116 C 19.463 105.934, 24.942 91.518, 32.303 77 L 37.627 66.500 34.813 62.049 C 33.266 59.601, 32 56.815, 32 55.858 C 32 51.949, 30.105 53.437, 27.004 59.780 M 167.599 56.322 C 167.257 58.149, 165.926 61.068, 164.642 62.808 L 162.307 65.972 168.095 77.524 C 180.630 102.538, 183.797 114.602, 184.697 140.750 C 185.023 150.238, 185.620 158, 186.023 158 C 187.523 158, 189.134 149.147, 189.692 137.833 C 190.588 119.673, 187.426 100.148, 179.840 77 C 176.355 66.368, 170.354 53, 169.066 53 C 168.602 53, 167.942 54.495, 167.599 56.322 M 116.736 65.418 C 110.420 68.015, 106 70.635, 106 71.783 C 106 72.188, 106.966 73.122, 108.146 73.859 C 110.095 75.076, 110.519 74.911, 112.749 72.062 C 114.100 70.336, 117.521 67.595, 120.352 65.971 C 126.536 62.425, 124.698 62.143, 116.736 65.418 M 120.131 72.750 C 118.267 74.311, 118.150 74.969, 119.048 78.848 C 119.601 81.239, 119.767 84.726, 119.416 86.598 C 118.426 91.875, 119.777 90.608, 121.386 84.750 C 123.209 78.112, 124.052 71, 123.016 71 C 122.579 71, 121.281 71.787, 120.131 72.750 M 33.799 89.556 C 30.113 97.225, 26.170 106.875, 25.037 111 C 22.037 121.919, 20.817 138.529, 21.976 152.668 C 22.881 163.703, 26.086 179.484, 27.764 181.165 C 28.169 181.571, 28.348 172.168, 28.162 160.269 C 27.957 147.183, 28.283 135.494, 28.985 130.689 C 30.938 117.331, 37.596 100.848, 44.410 92.500 L 46.859 89.500 48.488 93.359 C 50.723 98.651, 53.966 111.813, 53.985 115.668 C 53.993 117.411, 54.281 119.569, 54.625 120.465 C 55.330 122.303, 61.567 125.597, 70.593 128.898 C 75.569 130.718, 77.393 132.055, 80.552 136.196 C 84.272 141.075, 84.443 141.174, 85.075 138.812 C 85.436 137.462, 86.053 132.929, 86.445 128.739 L 87.159 121.121 83.330 120.478 C 70.134 118.262, 59.998 112.604, 57.964 106.316 C 55.745 99.456, 53.086 95.165, 47.075 88.739 C 42.678 84.039, 41.073 81.540, 40.829 79.013 C 40.531 75.935, 39.865 76.933, 33.799 89.556 M 159.080 79.165 C 159.014 82.173, 158.229 83.518, 154.701 86.665 C 148.480 92.216, 145.227 96.940, 142.917 103.781 C 141.339 108.451, 140.048 110.386, 137.190 112.359 C 131.727 116.131, 124.945 118.878, 118.879 119.775 L 113.500 120.570 113.723 127.035 C 113.989 134.771, 114.829 140.011, 115.795 139.969 C 116.183 139.952, 118.001 137.945, 119.837 135.508 C 122.632 131.797, 124.497 130.569, 131.337 127.933 C 144.073 123.025, 144.836 122.502, 145.461 118.248 C 147.498 104.371, 151.416 90, 153.161 90 C 154.626 90, 162.543 103.071, 165.276 110 C 171.080 124.720, 171.452 127.465, 171.477 155.699 C 171.490 170.108, 171.831 181.567, 172.236 181.163 C 172.641 180.758, 173.897 176.844, 175.026 172.464 C 179.279 155.974, 179.263 128.201, 174.992 111.439 C 173.866 107.021, 169.906 97.290, 166.064 89.500 C 159.875 76.951, 159.152 75.880, 159.080 79.165 M 44.187 107.933 C 41.261 112.744, 36.262 128.442, 34.910 137.063 C 33.392 146.744, 34.354 165.685, 36.990 178 C 39.252 188.574, 41.949 198.405, 42.436 197.857 C 42.611 197.661, 42.392 193.450, 41.948 188.500 C 41.505 183.550, 41.110 172.902, 41.071 164.838 C 40.993 148.796, 42.349 139.465, 46.621 126.637 C 48.747 120.254, 49.123 117.705, 48.599 113.245 C 47.635 105.047, 46.658 103.870, 44.187 107.933 M 152.643 105.768 C 152.371 106.209, 151.844 109.260, 151.472 112.549 C 150.900 117.597, 151.270 120.083, 153.846 128.514 C 158.906 145.072, 159.349 149.074, 158.694 172.326 C 158.366 183.972, 157.846 194.625, 157.538 196 C 157.075 198.070, 157.225 197.976, 158.410 195.453 C 159.197 193.776, 161.084 186.801, 162.603 179.953 C 165.006 169.121, 165.366 165.352, 165.364 151 C 165.362 136.001, 165.121 133.713, 162.713 125.844 C 160.035 117.097, 155.424 106.380, 153.943 105.465 C 153.500 105.191, 152.915 105.328, 152.643 105.768 M 88.955 122.750 C 88.930 123.713, 87.622 135.300, 86.050 148.500 L 83.190 172.500 85.206 174.250 C 86.901 175.722, 89.270 176, 100.111 176 C 118.434 176, 117.325 178.223, 113.865 148.428 C 112.337 135.268, 111.067 123.713, 111.043 122.750 C 111.005 121.192, 109.793 121, 100 121 C 90.208 121, 88.995 121.192, 88.955 122.750 M 53 128.875 C 53 130.456, 52.739 133.054, 52.421 134.647 C 51.904 137.232, 53.326 139.346, 65.630 154.277 C 76.617 167.610, 79.669 170.755, 80.650 169.755 C 81.341 169.049, 82.398 162.933, 83.063 155.786 L 84.247 143.072 80.239 138.286 C 76.672 134.026, 75.093 133.086, 65.866 129.728 C 60.165 127.654, 54.938 125.966, 54.250 125.978 C 53.545 125.991, 53 127.253, 53 128.875 M 133.607 129.856 C 125.125 133.079, 123.157 134.274, 119.813 138.236 L 115.912 142.857 117.107 155.931 C 117.840 163.960, 118.792 169.413, 119.574 170.062 C 120.545 170.868, 124.085 167.128, 134.484 154.309 C 146.542 139.446, 148.056 137.167, 147.561 134.625 C 147.252 133.044, 147 130.456, 147 128.875 C 147 125.111, 145.878 125.193, 133.607 129.856" stroke="none" fill="#040404" fill-rule="evenodd"/></svg>