<svg xmlns="http://www.w3.org/2000/svg" data-name="Рядовой 4" viewBox="0 0 132.12 152.72"><path d="M65.73.58.5 38.12v76.46l65.23 37.57 65.89-37.57V38.12L65.73.58ZM122.7 108.7l-56.97 32.9-56.31-32.22V43.49l56.31-32.63 56.97 32.63v65.21Z" style="fill:#fff;stroke:#fff;stroke-miterlimit:10"/><path d="m65.67 54.39 29.04-16.4 18.04 10.33-46.44 26.27-46.88-26.44 17.34-10.04 28.9 16.29Z" style="fill:#fff;stroke:#fff;stroke-miterlimit:10"/><path d="m66.04 21.11 20.79 12.11-20.78 11.85-20.91-11.89 20.9-12.07ZM65.71 111.09l48.89-27.03v19.83l-48.89 27.88-48.19-27.94L17.48 84l48.22 27.09Z" style="fill:#fff;stroke:#fff;stroke-miterlimit:10"/><path d="m65.95 82.56 48.89-27.03v19.83l-48.89 27.88L17.76 75.3l-.04-19.83 48.22 27.09Z" style="fill:#fff;stroke:#fff;stroke-miterlimit:10"/></svg>