<svg xmlns="http://www.w3.org/2000/svg" data-name="Рядовой 3" viewBox="0 0 132.12 152.72"><path d="M65.73.58.5 38.12v76.46l65.23 37.57 65.89-37.57V38.12L65.73.58ZM122.7 108.7l-56.97 32.9-56.31-32.22V43.49l56.31-32.63 56.97 32.63v65.21Z" style="fill:#fff;stroke:#fff;stroke-miterlimit:10"/><path d="m65.69 54.22 28.45-16.5 18.04 10.33-46.44 26.27-46.88-26.44L36.2 37.84l29.49 16.39ZM65.71 111.09l48.89-27.03v19.83l-48.89 27.88-48.19-27.94L17.48 84l48.22 27.09Z" style="fill:#fff;stroke:#fff;stroke-miterlimit:10"/><path d="m65.69 82.56 48.89-27.03v19.83l-48.89 27.88L17.5 75.3l-.04-19.83 48.22 27.09Z" style="fill:#fff;stroke:#fff;stroke-miterlimit:10"/></svg>