<svg xmlns="http://www.w3.org/2000/svg" data-name="Сержант 4" viewBox="0 0 132.12 152.72"><path d="M65.73.58.5 38.12v76.46l65.23 37.57 65.89-37.57V38.12L65.73.58ZM122.7 108.7l-56.97 32.9-56.31-32.22V43.49l56.31-32.63 56.97 32.63v65.21Z" style="fill:#fff;stroke:#fff;stroke-miterlimit:10"/><path d="m49.24 121.17 64.64-37.65v20.7l-48.55 26.04-16.09-9.08ZM24.98 107.24l88.41-51.84.5 19.76-72.81 41.16-16.09-9.08ZM16.28 81.76l77.17-44.64 17.17 10.4-93.74 53.95-.61-19.71ZM24.91 46.84l2.6 5.23 6.35 1.27-4.66 4.2 1.49 6.42-5.78-4-5.46 4 1.72-6.38-4.9-4.23 6.38-1.27 2.26-5.23Z" style="fill:#fff;stroke:#fff;stroke-miterlimit:10"/></svg>